<svg width="512" height="512" viewBox="0 0 512 512" fill="none" xmlns="http://www.w3.org/2000/svg">
    <rect x="277" y="10" width="231" height="223" rx="17" fill="#312E4D" />
    <rect x="4" y="10" width="231" height="223" rx="17" fill="#C84C2D" />
    <path
        d="M72.9802 165V85.2H92.7022L125.876 131.256L111.284 131.142L144.572 85.2H164.066V165H142.292V142.998C142.292 136.462 142.444 130.458 142.748 124.986C143.052 119.438 143.66 113.852 144.572 108.228L146.852 115.296L122.114 147.216H114.59L89.9662 114.954L92.4742 108.228C93.3862 113.7 93.9942 119.172 94.2982 124.644C94.6022 130.116 94.7542 136.234 94.7542 142.998V165H72.9802Z"
        fill="white" />
    <path
        d="M344.98 165V85.2H364.702L397.876 131.256L383.284 131.142L416.572 85.2H436.066V165H414.292V142.998C414.292 136.462 414.444 130.458 414.748 124.986C415.052 119.438 415.66 113.852 416.572 108.228L418.852 115.296L394.114 147.216H386.59L361.966 114.954L364.474 108.228C365.386 113.7 365.994 119.172 366.298 124.644C366.602 130.116 366.754 136.234 366.754 142.998V165H344.98Z"
        fill="white" />
    <rect x="277" y="279" width="231" height="223" rx="17" fill="#E0C200" />
    <path
        d="M356.67 433V353.2H399.876C405.348 353.2 410.25 354.378 414.582 356.734C418.914 359.014 422.334 362.168 424.842 366.196C427.426 370.224 428.718 374.86 428.718 380.104C428.718 385.652 427.388 390.592 424.728 394.924C422.144 399.18 418.572 402.562 414.012 405.07C409.452 407.578 404.322 408.832 398.622 408.832H379.242V433H356.67ZM378.9 389.338H394.29C396.418 389.338 398.28 388.996 399.876 388.312C401.472 387.628 402.764 386.602 403.752 385.234C404.74 383.866 405.234 382.27 405.234 380.446C405.234 378.698 404.74 377.254 403.752 376.114C402.764 374.974 401.472 374.138 399.876 373.606C398.28 372.998 396.418 372.694 394.29 372.694H378.9V389.338Z"
        fill="white" />
</svg>